<svg width="48" height="48" viewBox="0 0 48 48" fill="none" xmlns="http://www.w3.org/2000/svg">
<path d="M48 12.4511V6.01503H24.81V42.2105H33V28.1955H44.865V22.015H33V12.4511H48Z" fill="#fff"/>
<path d="M3.435 8.43609V19.1729C3.43698 19.4612 3.38228 19.7471 3.27405 20.0143C3.16581 20.2814 3.00615 20.5245 2.80418 20.7298C2.60222 20.9351 2.36189 21.0984 2.09694 21.2106C1.83199 21.3228 1.5476 21.3815 1.26 21.3835H0V26.6466H1.245C1.53259 26.6466 1.81737 26.7034 2.08308 26.8137C2.34878 26.9241 2.5902 27.0858 2.79356 27.2897C2.99692 27.4935 3.15824 27.7356 3.2683 28.0019C3.37835 28.2683 3.435 28.5538 3.435 28.8421V39.4737C3.435 44.9925 6.345 48 11.625 48H16.575V41.985H13.575C13.2953 41.9905 13.0166 41.9499 12.75 41.8647C11.505 41.594 10.83 40.5865 10.83 38.8571V29.8346C10.83 27.4436 10.83 25.0376 7.695 23.9398C10.83 22.812 10.83 20.0451 10.83 17.7895V9.02255C10.7347 8.37344 10.8765 7.71167 11.2293 7.15905C11.5821 6.60643 12.1221 6.20016 12.75 6.01504C13.0336 5.93978 13.3271 5.90934 13.62 5.92481H16.62V0H11.625C6.27 0 3.435 3.00752 3.435 8.43609Z" fill="#fff"/>
</svg>
